<svg id="Layer_1" data-name="Layer 1" xmlns="http://www.w3.org/2000/svg" viewBox="0 0 89.448 102"><defs><style>.cls-1{fill:#fff;}</style></defs><title>Artboard 2</title><path class="cls-1" d="M0,36,37.766,14.193V29.346l-24.618,14.6v29.8l25.1,14.686,25.613-14.84,12.778,7.566L42,102H34L0,81Q0,58.5,0,36Z"/><path class="cls-1" d="M41,0C55.7,8.721,70.42,17.411,85.078,26.2c1.632.979,4.153,2.526,4.172,3.838.271,19.207.186,38.418.186,58.767l-12.694-7.3V36.726L38,13.95V0Z"/><path class="cls-1" d="M50.936,66.421V51.645L38.371,44.022v-15.2L63.757,43.63V73.859Z"/><path class="cls-1" d="M38.071,43.921V58.266l13.12,8.214c-6.057,2.172-9.029,8.243-15.9,5.765-8.653-3.122-11.423-9.172-9.918-17.794C26.563,47.646,33.039,47.771,38.071,43.921Z"/></svg>